<?xml version="1.0" encoding="UTF-8" standalone="no"?>
<!-- Created with Inkscape (http://www.inkscape.org/) -->

<svg
   xmlns:dc="http://purl.org/dc/elements/1.1/"
   xmlns:cc="http://creativecommons.org/ns#"
   xmlns:rdf="http://www.w3.org/1999/02/22-rdf-syntax-ns#"
   xmlns:svg="http://www.w3.org/2000/svg"
   xmlns="http://www.w3.org/2000/svg"
   xmlns:sodipodi="http://sodipodi.sourceforge.net/DTD/sodipodi-0.dtd"
   xmlns:inkscape="http://www.inkscape.org/namespaces/inkscape"
   width="297mm"
   height="210mm"
   viewBox="0 0 297 210"
   version="1.1"
   id="svg8"
   inkscape:version="0.92.2 (5c3e80d, 2017-08-06)"
   sodipodi:docname="rojekti_boxi1.0.svg">
  <sodipodi:namedview
     id="base"
     pagecolor="#ffffff"
     bordercolor="#666666"
     borderopacity="1.0"
     inkscape:pageopacity="0.0"
     inkscape:pageshadow="2"
     inkscape:zoom="1"
     inkscape:cx="403.95214"
     inkscape:cy="485.19067"
     inkscape:document-units="mm"
     inkscape:current-layer="layer1"
     showgrid="false"
     inkscape:window-width="1920"
     inkscape:window-height="1001"
     inkscape:window-x="-9"
     inkscape:window-y="-9"
     inkscape:window-maximized="1"
     inkscape:snap-global="true"
     inkscape:measure-start="524.32,257.033"
     inkscape:measure-end="524.32,221.678">
    <inkscape:grid
       type="xygrid"
       id="grid1485" />
  </sodipodi:namedview>
  <defs
     id="defs2" />
  <metadata
     id="metadata5">
    <rdf:RDF>
      <cc:Work
         rdf:about="">
        <dc:format>image/svg+xml</dc:format>
        <dc:type
           rdf:resource="http://purl.org/dc/dcmitype/StillImage" />
        <dc:title></dc:title>
      </cc:Work>
    </rdf:RDF>
  </metadata>
  <g
     transform="translate(0,-87)"
     id="layer1"
     inkscape:groupmode="layer"
     inkscape:label="Taso 1">
    <g
       style="stroke:#000000;stroke-opacity:1;fill:none;stroke-width:0.01;stroke-miterlimit:4;stroke-dasharray:none"
       transform="translate(-0.37797619,-0.37797619)"
       id="g830" />
    <path
       id="circle1483"
       style="fill:none;fill-opacity:1;stroke:#000000;stroke-width:0.02;stroke-linecap:round;stroke-linejoin:round;stroke-miterlimit:4;stroke-dasharray:none;stroke-opacity:1"
       d="M 5.1172773,92.514751 V 192.47712 H 117.07944 v -0.002 a 47.995091,49.978553 0 0 0 47.99138,-49.97834 47.995091,49.978553 0 0 0 -47.99138,-49.978869 v -0.004 z m 168.3979827,0.82977 h 34.99353 v 34.993529 h -34.99353 z m 0,41.872669 h 34.99353 v 34.99353 H 173.51526 Z M 26.291538,258.24144 h 5.415 v -3 h 5.17 v 3 h 5.33 v -3 h 5.17 v 3 h 5.33 v -3 h 5.17 v 3 h 5.33 v -3 h 5.17 v 3 h 5.33 v -3 h 5.17 v 3 h 5.329999 v -3 h 5.17 v 3 h 5.33 v -3 h 5.17 v 3 h 5.330003 v -3 h 5.17 v 3 h 5.33 v -3 h 5.17 v 3 h 5.415 m 0,0 v 6.085 h -3 v 4.83 h 3 v 6.085 m 0,0 h -5.415 v 3 h -5.17 v -3 h -5.33 v 3 h -5.17 v -3 h -5.330003 v 3 h -5.17 v -3 h -5.33 v 3 h -5.17 v -3 h -5.329999 v 3 h -5.17 v -3 h -5.33 v 3 h -5.17 v -3 h -5.33 v 3 h -5.17 v -3 h -5.33 v 3 h -5.17 v -3 h -5.33 v 3 h -5.17 v -3 h -5.415 m 0,0 v -6.085 h 3 v -4.83 h -3 v -6.085 m -21.0000003,-32 h 5.9150003 v -3 h 5.17 v 3 h 5.915 m 0,0 v 3.915 h 3 v 5.17 h -3 v 6.83 h 3 v 5.17 h -3 v 3.915 m 0,0 h -5.915 v 3 h -5.17 v -3 H 5.2915377 m 0,0 v -3.915 h -3 v -5.17 h 3 v -6.83 h -3 v -5.17 h 3 v -3.915 m 21.0000003,-3 h 5.585 v 3 h 4.83 v -3 h 5.67 v 3 h 4.83 v -3 h 5.67 v 3 h 4.83 v -3 h 5.67 v 3 h 4.83 v -3 h 5.67 v 3 h 4.83 v -3 h 5.669999 v 3 h 4.83 v -3 h 5.67 v 3 h 4.83 v -3 h 5.670003 v 3 h 4.83 v -3 h 5.67 v 3 h 4.83 v -3 h 5.585 m 0,0 v 7.085 h -3 v 4.83 h 3 v 7.17 h -3 v 4.83 h 3 v 7.085 m 0,0 h -5.585 v -3 h -4.83 v 3 h -5.67 v -3 h -4.83 v 3 h -5.670003 v -3 h -4.83 v 3 h -5.67 v -3 h -4.83 v 3 h -5.669999 v -3 h -4.83 v 3 h -5.67 v -3 h -4.83 v 3 h -5.67 v -3 h -4.83 v 3 h -5.67 v -3 h -4.83 v 3 h -5.67 v -3 h -4.83 v 3 h -5.585 m 0,0 v -7.085 h 3 v -4.83 h -3 v -7.17 h 3 v -4.83 h -3 v -7.085 m 104.000002,3 h 5.915 v -3 h 5.17 v 3 h 5.915 m 0,0 v 3.915 h 3 v 5.17 h -3 v 6.83 h 3 v 5.17 h -3 v 3.915 m 0,0 h -5.915 v 3 h -5.17 v -3 h -5.915 m 0,0 v -3.915 h -3 v -5.17 h 3 v -6.83 h -3 v -5.17 h 3 v -3.915 m 21,-3 h 5.585 v 3 h 4.83 v -3 h 5.67 v 3 h 4.83 v -3 h 5.67 v 3 h 4.83 v -3 h 5.67 v 3 h 4.83 v -3 h 5.67 v 3 h 4.83 v -3 h 5.67 v 3 h 4.83 v -3 h 5.67 v 3 h 4.83 v -3 h 5.67 v 3 h 4.83 v -3 h 5.67 v 3 h 4.83 v -3 h 5.585 m 0,0 v 7.085 h -3 v 4.83 h 3 v 7.17 h -3 v 4.83 h 3 v 7.085 m 0,0 h -5.585 v -3 h -4.83 v 3 h -5.67 v -3 h -4.83 v 3 h -5.67 v -3 h -4.83 v 3 h -5.67 v -3 h -4.83 v 3 h -5.67 v -3 h -4.83 v 3 h -5.67 v -3 h -4.83 v 3 h -5.67 v -3 h -4.83 v 3 h -5.67 v -3 h -4.83 v 3 h -5.67 v -3 h -4.83 v 3 h -5.585 m 0,0 v -7.085 h 3 v -4.83 h -3 v -7.17 h 3 v -4.83 h -3 v -7.085 m -125.000002,-21 h 5.415 v -3 h 5.17 v 3 h 5.33 v -3 h 5.17 v 3 h 5.33 v -3 h 5.17 v 3 h 5.33 v -3 h 5.17 v 3 h 5.33 v -3 h 5.17 v 3 h 5.329999 v -3 h 5.17 v 3 h 5.33 v -3 h 5.17 v 3 h 5.330003 v -3 h 5.17 v 3 h 5.33 v -3 h 5.17 v 3 h 5.415 m 0,0 v 6.085 h -3 v 4.83 h 3 v 6.085 m 0,0 h -5.415 v 3 h -5.17 v -3 h -5.33 v 3 h -5.17 v -3 h -5.330003 v 3 h -5.17 v -3 h -5.33 v 3 h -5.17 v -3 h -5.329999 v 3 h -5.17 v -3 h -5.33 v 3 h -5.17 v -3 h -5.33 v 3 h -5.17 v -3 h -5.33 v 3 h -5.17 v -3 h -5.33 v 3 h -5.17 v -3 h -5.415 m 0,0 v -6.085 h 3 v -4.83 h -3 v -6.085 M 15.438885,238.6751 a 1.810143,1.810143 0 0 1 -1.810143,1.81014 1.810143,1.810143 0 0 1 -1.810143,-1.81014 1.810143,1.810143 0 0 1 1.810143,-1.81014 1.810143,1.810143 0 0 1 1.810143,1.81014 z m 125.398845,-0.0935 a 1.810143,1.810143 0 0 1 -1.81014,1.81014 1.810143,1.810143 0 0 1 -1.81015,-1.81014 1.810143,1.810143 0 0 1 1.81015,-1.81014 1.810143,1.810143 0 0 1 1.81014,1.81014 z" />
  </g>
  <g
     id="g1011"
     inkscape:groupmode="layer"
     inkscape:label="newlayer" />
</svg>
