<?xml version="1.0" encoding="UTF-8" standalone="no"?>
<!-- Created with Inkscape (http://www.inkscape.org/) -->

<svg
   xmlns:dc="http://purl.org/dc/elements/1.1/"
   xmlns:cc="http://creativecommons.org/ns#"
   xmlns:rdf="http://www.w3.org/1999/02/22-rdf-syntax-ns#"
   xmlns:svg="http://www.w3.org/2000/svg"
   xmlns="http://www.w3.org/2000/svg"
   xmlns:sodipodi="http://sodipodi.sourceforge.net/DTD/sodipodi-0.dtd"
   xmlns:inkscape="http://www.inkscape.org/namespaces/inkscape"
   width="297mm"
   height="210mm"
   viewBox="0 0 297 210"
   version="1.1"
   id="svg8"
   inkscape:version="0.92.2 (5c3e80d, 2017-08-06)"
   sodipodi:docname="boxi3.svg">
  <sodipodi:namedview
     id="base"
     pagecolor="#ffffff"
     bordercolor="#666666"
     borderopacity="1.0"
     inkscape:pageopacity="0.0"
     inkscape:pageshadow="2"
     inkscape:zoom="0.7"
     inkscape:cx="489.91064"
     inkscape:cy="509.21068"
     inkscape:document-units="mm"
     inkscape:current-layer="layer1"
     showgrid="false"
     inkscape:window-width="1920"
     inkscape:window-height="1001"
     inkscape:window-x="-9"
     inkscape:window-y="-9"
     inkscape:window-maximized="1" />
  <defs
     id="defs2" />
  <metadata
     id="metadata5">
    <rdf:RDF>
      <cc:Work
         rdf:about="">
        <dc:format>image/svg+xml</dc:format>
        <dc:type
           rdf:resource="http://purl.org/dc/dcmitype/StillImage" />
        <dc:title></dc:title>
      </cc:Work>
    </rdf:RDF>
  </metadata>
  <g
     id="layer1"
     inkscape:groupmode="layer"
     inkscape:label="Taso 1"
     transform="translate(0,-87)">
    <path
       id="circle997"
       style="fill:none;stroke:#000000;stroke-width:0.02;stroke-miterlimit:4;stroke-dasharray:none;stroke-opacity:1"
       d="m 156.54837,137.76648 a 3.4949214,3.4949214 0 0 1 -3.49492,3.49492 3.4949214,3.4949214 0 0 1 -3.49492,-3.49492 3.4949214,3.4949214 0 0 1 3.49492,-3.49492 3.4949214,3.4949214 0 0 1 3.49492,3.49492 z m -133.133624,0 a 3.4949214,3.4949214 0 0 1 -3.494921,3.49492 3.4949214,3.4949214 0 0 1 -3.494922,-3.49492 3.4949214,3.4949214 0 0 1 3.494922,-3.49492 3.4949214,3.4949214 0 0 1 3.494921,3.49492 z m 12.98704,-19.94208 v -3.41833 h 3 v -5.83 h -3 v -6.50333 h 3 v -5.830002 h -3 V 92.824405 M 136.40179,117.8244 h -7.165 v 3 h -6.17 v -3 h -7.08 v 3 h -6.17 v -3 h -7.08 v 3 h -6.170004 v -3 h -7.08 v 3 h -6.17 v -3 h -7.08 v 3 h -6.17 v -3 h -7.08 v 3 h -6.17 v -3 h -7.08 v 3 h -6.17 v -3 h -7.165 M 136.40179,92.824405 v 3.418333 h -3 v 5.830002 h 3 v 6.50333 h -3 v 5.83 h 3 v 3.41833 M 36.401786,92.824405 h 7.165 v -3 h 6.17 v 3 h 7.08 v -3 h 6.17 v 3 h 7.08 v -3 h 6.17 v 3 h 7.08 v -3 h 6.17 v 3 h 7.08 v -3 h 6.170004 v 3 h 7.08 v -3 h 6.17 v 3 h 7.08 v -3 h 6.17 v 3 h 7.165 m 33,73.999995 v -6.835 h 3 v -5.83 h -3 v -6.92 h 3 v -5.83 h -3 v -6.92 h 3 v -5.83 h -3 v -6.835 m 100,45 h -7.335 v -3 h -5.83 v 3 h -7.42 v -3 h -5.83 v 3 h -7.42 v -3 h -5.83 v 3 h -7.42 v -3 h -5.83 v 3 h -7.42 v -3 h -5.83 v 3 h -7.42 v -3 h -5.83 v 3 h -7.42 v -3 h -5.83 v 3 h -7.335 m 100,-45 v 6.835 h -3 v 5.83 h 3 v 6.92 h -3 v 5.83 h 3 v 6.92 h -3 v 5.83 h 3 v 6.835 m -100,-45 h 7.335 v 3 h 5.83 v -3 h 7.42 v 3 h 5.83 v -3 h 7.42 v 3 h 5.83 v -3 h 7.42 v 3 h 5.83 v -3 h 7.42 v 3 h 5.83 v -3 h 7.42 v 3 h 5.83 v -3 h 7.42 v 3 h 5.83 v -3 h 7.335 m -129,42 v -3.665 h -3 v -6.17 h 3 v -6.58 h -3 v -6.17 h 3 v -6.58 h -3 v -6.17 h 3 v -3.665 m 25,39 h -3.24833 v 3 h -6.17 v -3 h -6.16334 v 3 h -6.17 v -3 h -3.24833 m 25,-39 v 3.665 h 3 v 6.17 h -3 v 6.58 h 3 v 6.17 h -3 v 6.58 h 3 v 6.17 h -3 v 3.665 m -25,-39 h 3.24833 v -3 h 6.17 v 3 h 6.16334 v -3 h 6.17 v 3 h 3.24833 m -129.000004,42 v -6.835 h 3 v -5.83 h -3 v -6.92 h 3 v -5.83 h -3 v -6.92 h 3 v -5.83 h -3 v -6.835 m 100.000004,45 h -7.335 v -3 h -5.83 v 3 h -7.42 v -3 h -5.83 v 3 h -7.42 v -3 h -5.830004 v 3 h -7.42 v -3 h -5.83 v 3 h -7.42 v -3 h -5.83 v 3 h -7.42 v -3 h -5.83 v 3 h -7.42 v -3 h -5.83 v 3 h -7.335 m 100.000004,-45 v 6.835 h -3 v 5.83 h 3 v 6.92 h -3 v 5.83 h 3 v 6.92 h -3 v 5.83 h 3 v 6.835 m -100.000004,-45 h 7.335 v 3 h 5.83 v -3 h 7.42 v 3 h 5.83 v -3 h 7.42 v 3 h 5.83 v -3 h 7.42 v 3 h 5.83 v -3 h 7.42 v 3 h 5.830004 v -3 h 7.42 v 3 h 5.83 v -3 h 7.42 v 3 h 5.83 v -3 h 7.335 m -129.0000043,42 v -3.665 h -3 v -6.17 h 3 v -6.58 h -3 v -6.17 h 3 v -6.58 h -3 v -6.17 h 3 v -3.665 m 25.0000003,39 h -3.248333 v 3 h -6.17 v -3 h -6.163334 v 3 h -6.17 v -3 H 7.4017857 m 25.0000003,-39 v 3.665 h 3 v 6.17 h -3 v 6.58 h 3 v 6.17 h -3 v 6.58 h 3 v 6.17 h -3 v 3.665 m -25.0000003,-39 h 3.2483333 v -3 h 6.17 v 3 h 6.163334 v -3 h 6.17 v 3 h 3.248333 m 4,71 v -3.41833 h 3 v -5.83 h -3 v -6.50333 h 3 v -5.83 h -3 v -3.41834 m 100.000004,25 h -7.165 v 3 h -6.17 v -3 h -7.08 v 3 h -6.17 v -3 h -7.08 v 3 h -6.170004 v -3 h -7.08 v 3 h -6.17 v -3 h -7.08 v 3 h -6.17 v -3 h -7.08 v 3 h -6.17 v -3 h -7.08 v 3 h -6.17 v -3 h -7.165 m 100.000004,-25 v 3.41834 h -3 v 5.83 h 3 v 6.50333 h -3 v 5.83 h 3 v 3.41833 m -100.000004,-25 h 7.165 v -3 h 6.17 v 3 h 7.08 v -3 h 6.17 v 3 h 7.08 v -3 h 6.17 v 3 h 7.08 v -3 h 6.17 v 3 h 7.08 v -3 h 6.170004 v 3 h 7.08 v -3 h 6.17 v 3 h 7.08 v -3 h 6.17 v 3 h 7.165" />
  </g>
  <g
     id="g931"
     inkscape:groupmode="layer"
     inkscape:label="newlayer"
     transform="translate(0,-87)" />
</svg>
