<?xml version="1.0" encoding="UTF-8" standalone="no"?>
<!-- Created with Inkscape (http://www.inkscape.org/) -->

<svg
   xmlns:dc="http://purl.org/dc/elements/1.1/"
   xmlns:cc="http://creativecommons.org/ns#"
   xmlns:rdf="http://www.w3.org/1999/02/22-rdf-syntax-ns#"
   xmlns:svg="http://www.w3.org/2000/svg"
   xmlns="http://www.w3.org/2000/svg"
   xmlns:sodipodi="http://sodipodi.sourceforge.net/DTD/sodipodi-0.dtd"
   xmlns:inkscape="http://www.inkscape.org/namespaces/inkscape"
   width="297mm"
   height="210mm"
   viewBox="0 0 297 210"
   version="1.1"
   id="svg891"
   inkscape:version="0.92.2 (5c3e80d, 2017-08-06)"
   sodipodi:docname="boxi2.svg">
  <sodipodi:namedview
     id="base"
     pagecolor="#ffffff"
     bordercolor="#666666"
     borderopacity="1.0"
     inkscape:pageopacity="0.0"
     inkscape:pageshadow="2"
     inkscape:zoom="0.7"
     inkscape:cx="525.01285"
     inkscape:cy="651.10706"
     inkscape:document-units="mm"
     inkscape:current-layer="layer1"
     showgrid="false"
     inkscape:window-width="1920"
     inkscape:window-height="1001"
     inkscape:window-x="-9"
     inkscape:window-y="-9"
     inkscape:window-maximized="1" />
  <defs
     id="defs885" />
  <metadata
     id="metadata888">
    <rdf:RDF>
      <cc:Work
         rdf:about="">
        <dc:format>image/svg+xml</dc:format>
        <dc:type
           rdf:resource="http://purl.org/dc/dcmitype/StillImage" />
        <dc:title></dc:title>
      </cc:Work>
    </rdf:RDF>
  </metadata>
  <g
     transform="translate(0,-87)"
     id="layer1"
     inkscape:groupmode="layer"
     inkscape:label="Taso 1">
    <path
       id="circle1618"
       style="fill:none;stroke:#000000;stroke-width:0.02;stroke-miterlimit:4;stroke-dasharray:none;stroke-opacity:1"
       d="m 151.85573,137.49416 a 1.9969497,1.9969497 0 0 1 -1.99695,1.99695 1.9969497,1.9969497 0 0 1 -1.99695,-1.99695 1.9969497,1.9969497 0 0 1 1.99695,-1.99695 1.9969497,1.9969497 0 0 1 1.99695,1.99695 z m -132.992821,0 a 1.9969497,1.9969497 0 0 1 -1.99695,1.99695 1.9969497,1.9969497 0 0 1 -1.99695,-1.99695 1.9969497,1.9969497 0 0 1 1.99695,-1.99695 1.9969497,1.9969497 0 0 1 1.99695,1.99695 z m 14.515067,-20.42571 v -3.37833 h 3 v -5.91 h -3 v -6.42333 h 3 v -5.910004 h -3 V 92.068452 M 133.37798,117.06845 h -7.205 v 3 h -6.09 v -3 h -7.16 v 3 h -6.09 v -3 h -7.160004 v 3 h -6.09 v -3 h -7.16 v 3 h -6.09 v -3 h -7.16 v 3 h -6.09 v -3 h -7.16 v 3 h -6.09 v -3 h -7.16 v 3 h -6.09 v -3 h -7.205 M 133.37798,92.068452 v 3.378334 h -3 v 5.910004 h 3 v 6.42333 h -3 v 5.91 h 3 v 3.37833 M 33.377976,92.068452 h 7.205 v -3 h 6.09 v 3 h 7.16 v -3 h 6.09 v 3 h 7.16 v -3 h 6.09 v 3 h 7.16 v -3 h 6.09 v 3 h 7.16 v -3 h 6.09 v 3 h 7.160004 v -3 h 6.09 v 3 h 7.16 v -3 h 6.09 v 3 h 7.205 m 33,61.999998 v -7.045 h 3 v -5.91 h -3 v -7.09 h 3 v -5.91 h -3 v -7.045 m 100,33 h -7.295 v -3 h -5.91 v 3 h -7.34 v -3 h -5.91 v 3 h -7.34 v -3 h -5.91 v 3 h -7.34 v -3 h -5.91 v 3 h -7.34 v -3 h -5.91 v 3 h -7.34 v -3 h -5.91 v 3 h -7.34 v -3 h -5.91 v 3 h -7.295 m 100,-33 v 7.045 h -3 v 5.91 h 3 v 7.09 h -3 v 5.91 h 3 v 7.045 m -100,-33 h 7.295 v 3 h 5.91 v -3 h 7.34 v 3 h 5.91 v -3 h 7.34 v 3 h 5.91 v -3 h 7.34 v 3 h 5.91 v -3 h 7.34 v 3 h 5.91 v -3 h 7.34 v 3 h 5.91 v -3 h 7.34 v 3 h 5.91 v -3 h 7.295 m -129,30 v -3.955 h -3 v -6.09 h 3 v -6.91 h -3 v -6.09 h 3 v -3.955 m 25,27 h -3.28833 v 3 h -6.09 v -3 h -6.24334 v 3 h -6.09 v -3 h -3.28833 m 25,-27 v 3.955 h 3 v 6.09 h -3 v 6.91 h 3 v 6.09 h -3 v 3.955 m -25,-27 h 3.28833 v -3 h 6.09 v 3 h 6.24334 v -3 h 6.09 v 3 h 3.28833 m -129.000004,30 v -7.045 h 3 v -5.91 h -3 v -7.09 h 3 v -5.91 h -3 v -7.045 m 100.000004,33 h -7.295 v -3 h -5.91 v 3 h -7.34 v -3 h -5.91 v 3 h -7.340004 v -3 h -5.91 v 3 h -7.34 v -3 h -5.91 v 3 h -7.34 v -3 h -5.91 v 3 h -7.34 v -3 h -5.91 v 3 h -7.34 v -3 h -5.91 v 3 h -7.295 m 100.000004,-33 v 7.045 h -3 v 5.91 h 3 v 7.09 h -3 v 5.91 h 3 v 7.045 m -100.000004,-33 h 7.295 v 3 h 5.91 v -3 h 7.34 v 3 h 5.91 v -3 h 7.34 v 3 h 5.91 v -3 h 7.34 v 3 h 5.91 v -3 h 7.34 v 3 h 5.91 v -3 h 7.340004 v 3 h 5.91 v -3 h 7.34 v 3 h 5.91 v -3 h 7.295 m -129.0000038,30 v -3.955 h -3 v -6.09 h 3 v -6.91 h -3 v -6.09 h 3 v -3.955 m 24.9999998,27 h -3.288333 v 3 h -6.09 v -3 h -6.243334 v 3 H 7.6663095 v -3 H 4.3779762 m 24.9999998,-27 v 3.955 h 3 v 6.09 h -3 v 6.91 h 3 v 6.09 h -3 v 3.955 m -24.9999998,-27 h 3.2883333 v -3 h 6.0899995 v 3 h 6.243334 v -3 h 6.09 v 3 h 3.288333 m 4,59 v -3.37833 h 3 v -5.91 h -3 v -6.42333 h 3 v -5.91 h -3 v -3.37834 m 100.000004,25 h -7.205 v 3 h -6.09 v -3 h -7.16 v 3 h -6.09 v -3 h -7.160004 v 3 h -6.09 v -3 h -7.16 v 3 h -6.09 v -3 h -7.16 v 3 h -6.09 v -3 h -7.16 v 3 h -6.09 v -3 h -7.16 v 3 h -6.09 v -3 h -7.205 m 100.000004,-25 v 3.37834 h -3 v 5.91 h 3 v 6.42333 h -3 v 5.91 h 3 v 3.37833 m -100.000004,-25 h 7.205 v -3 h 6.09 v 3 h 7.16 v -3 h 6.09 v 3 h 7.16 v -3 h 6.09 v 3 h 7.16 v -3 h 6.09 v 3 h 7.16 v -3 h 6.09 v 3 h 7.160004 v -3 h 6.09 v 3 h 7.16 v -3 h 6.09 v 3 h 7.205" />
  </g>
  <g
     id="g1552"
     inkscape:groupmode="layer"
     inkscape:label="newlayer" />
</svg>
