<?xml version="1.0" encoding="UTF-8" standalone="no"?>
<!-- Created with Inkscape (http://www.inkscape.org/) -->

<svg
   xmlns:dc="http://purl.org/dc/elements/1.1/"
   xmlns:cc="http://creativecommons.org/ns#"
   xmlns:rdf="http://www.w3.org/1999/02/22-rdf-syntax-ns#"
   xmlns:svg="http://www.w3.org/2000/svg"
   xmlns="http://www.w3.org/2000/svg"
   xmlns:sodipodi="http://sodipodi.sourceforge.net/DTD/sodipodi-0.dtd"
   xmlns:inkscape="http://www.inkscape.org/namespaces/inkscape"
   width="210mm"
   height="297mm"
   viewBox="0 0 210 297"
   version="1.1"
   id="svg8"
   inkscape:version="0.92.2 (5c3e80d, 2017-08-06)"
   sodipodi:docname="enkooderi2.svg">
  <sodipodi:namedview
     id="base"
     pagecolor="#ffffff"
     bordercolor="#666666"
     borderopacity="1.0"
     inkscape:pageopacity="0.0"
     inkscape:pageshadow="2"
     inkscape:zoom="1.979899"
     inkscape:cx="48.392274"
     inkscape:cy="985.39658"
     inkscape:document-units="mm"
     inkscape:current-layer="layer1"
     showgrid="false"
     inkscape:window-width="1920"
     inkscape:window-height="1001"
     inkscape:window-x="-9"
     inkscape:window-y="-9"
     inkscape:window-maximized="1" />
  <defs
     id="defs2" />
  <metadata
     id="metadata5">
    <rdf:RDF>
      <cc:Work
         rdf:about="">
        <dc:format>image/svg+xml</dc:format>
        <dc:type
           rdf:resource="http://purl.org/dc/dcmitype/StillImage" />
        <dc:title />
      </cc:Work>
    </rdf:RDF>
  </metadata>
  <g
     id="layer1"
     inkscape:groupmode="layer"
     inkscape:label="Taso 1">
    <g
       id="g1003"
       inkscape:label="Encoder disk"
       transform="translate(30.565511,29.065798)" />
    <path
       id="rect1024"
       style="fill:none;stroke:#000000;stroke-width:0.01;stroke-miterlimit:4;stroke-dasharray:none;stroke-opacity:1"
       d="m 26.565945,25.072258 h 7.989721 v 7.989721 h -7.989721 z m 26.499566,3.99354 a 22.5,22.5 0 0 1 -22.5,22.5 22.5,22.5 0 0 1 -22.5,-22.5 22.5,22.5 0 0 1 22.5,-22.5 22.5,22.5 0 0 1 22.5,22.5 z m -21.5,0 a 1,1 0 0 1 -1,1 1,1 0 0 1 -1,-1 1,1 0 0 1 1,-1 1,1 0 0 1 1,1 z m 3,0 a 4,4 0 0 1 -4,4 4,4 0 0 1 -4,-4 4,4 0 0 1 4,-4 4,4 0 0 1 4,4 z m 7.730746,-8.522886 6.472136,-4.702282 a 22.5,22.5 0 0 1 3.19589,6.272286 l -7.608453,2.472136 a 14.5,14.5 0 0 0 -2.059573,-4.04214 z m -7.25,-5.267433 2.472136,-7.608453 a 22.5,22.5 0 0 1 6.272286,3.19589 l -4.702282,6.472136 a 14.5,14.5 0 0 0 -4.04214,-2.059573 z m -8.961492,0 -2.472136,-7.608453 a 22.5,22.5 0 0 1 6.952882,-1.101228 v 8 a 14.5,14.5 0 0 0 -4.480746,0.709681 z m -7.25,5.267433 -6.472136,-4.702282 a 22.5,22.5 0 0 1 4.977714,-4.977714 l 4.702282,6.472136 a 14.5,14.5 0 0 0 -3.20786,3.20786 z m -2.769254,8.522886 h -8 a 22.5,22.5 0 0 1 1.101228,-6.952882 l 7.608453,2.472136 a 14.5,14.5 0 0 0 -0.709681,4.480746 z m 2.769254,8.522886 -6.472136,4.702282 A 22.5,22.5 0 0 1 9.166739,36.01868 l 7.608453,-2.472136 a 14.5,14.5 0 0 0 2.059573,4.04214 z m 7.25,5.267433 -2.472136,7.608453 a 22.5,22.5 0 0 1 -6.272286,-3.19589 l 4.702282,-6.472136 a 14.5,14.5 0 0 0 4.04214,2.059573 z m 8.961492,0 2.472136,7.608453 a 22.5,22.5 0 0 1 -6.952882,1.101228 v -8 a 14.5,14.5 0 0 0 4.480746,-0.709681 z m 7.25,-5.267433 6.472136,4.702282 a 22.5,22.5 0 0 1 -4.977714,4.977714 l -4.702282,-6.472136 a 14.5,14.5 0 0 0 3.20786,-3.20786 z m 2.769254,-8.522886 h 8 A 22.5,22.5 0 0 1 51.964283,36.01868 L 44.35583,33.546544 a 14.5,14.5 0 0 0 0.709681,-4.480746 z" />
  </g>
</svg>
