<?xml version="1.0" encoding="UTF-8" standalone="no"?>
<!-- Created with Inkscape (http://www.inkscape.org/) -->

<svg
   xmlns:dc="http://purl.org/dc/elements/1.1/"
   xmlns:cc="http://creativecommons.org/ns#"
   xmlns:rdf="http://www.w3.org/1999/02/22-rdf-syntax-ns#"
   xmlns:svg="http://www.w3.org/2000/svg"
   xmlns="http://www.w3.org/2000/svg"
   xmlns:sodipodi="http://sodipodi.sourceforge.net/DTD/sodipodi-0.dtd"
   xmlns:inkscape="http://www.inkscape.org/namespaces/inkscape"
   inkscape:version="0.92.2 (5c3e80d, 2017-08-06)"
   width="210mm"
   height="297mm"
   viewBox="0 0 210 297"
   version="1.1"
   id="svg1085"
   sodipodi:docname="rotary_encoder1.0.svg">
  <sodipodi:namedview
     inkscape:measure-end="149.643,1117.14"
     inkscape:measure-start="78.9286,1159.29"
     id="base"
     pagecolor="#ffffff"
     bordercolor="#666666"
     borderopacity="1.0"
     inkscape:pageopacity="0.0"
     inkscape:pageshadow="2"
     inkscape:zoom="2.8284271"
     inkscape:cx="36.109556"
     inkscape:cy="1044.0946"
     inkscape:document-units="mm"
     inkscape:current-layer="svg1085"
     showgrid="false"
     inkscape:window-width="1920"
     inkscape:window-height="1001"
     inkscape:window-x="-9"
     inkscape:window-y="-9"
     inkscape:window-maximized="1" />
  <defs
     id="defs1079">
    <clipPath
       id="clipPath11626"
       clipPathUnits="userSpaceOnUse">
      <g
         inkscape:label="Clip"
         id="use11628">
        <rect
           y="47.483238"
           x="20.783466"
           height="7.9870858"
           width="7.9870858"
           id="rect11630"
           style="fill:none;fill-opacity:1;stroke:#000000;stroke-width:0.01;stroke-linecap:round;stroke-linejoin:round;stroke-miterlimit:4;stroke-dasharray:none;stroke-opacity:1" />
      </g>
    </clipPath>
  </defs>
  <metadata
     id="metadata1082">
    <rdf:RDF>
      <cc:Work
         rdf:about="">
        <dc:format>image/svg+xml</dc:format>
        <dc:type
           rdf:resource="http://purl.org/dc/dcmitype/StillImage" />
        <dc:title />
      </cc:Work>
    </rdf:RDF>
  </metadata>
  <g
     id="layer1"
     inkscape:groupmode="layer"
     inkscape:label="Layer 1" />
  <g
     id="g11747"
     inkscape:label="Encoder disk"
     transform="translate(22.521858266220455, 56.18307360893783)"
     style="stroke:#000000;stroke-opacity:1;stroke-width:0.01;stroke-miterlimit:4;stroke-dasharray:none" />
  <g
     style="stroke-width:0.01;stroke-miterlimit:4;stroke-dasharray:none"
     transform="translate(17.439149,17.395715)"
     inkscape:label="Encoder disk"
     id="g14741" />
  <g
     id="g1913"
     inkscape:label="Encoder disk"
     transform="translate(16.958209,16.778654)" />
  <path
     id="rect1939"
     style="fill:none;stroke:#000000;stroke-width:0.02;stroke-miterlimit:4;stroke-dasharray:none;stroke-opacity:1"
     d="m 12.975152,12.776244 h 7.978495 v 7.978495 h -7.978495 z m 18.983057,4.00241 a 15,15 0 0 1 -15,15 15,15 0 0 1 -15,-15 15,15 0 0 1 15,-15 15,15 0 0 1 15,15 z m -14,0 a 1,1 0 0 1 -1,1 1,1 0 0 1 -1,-1 1,1 0 0 1 1,-1 1,1 0 0 1 1,1 z m 3,0 a 4,4 0 0 1 -4,4 4,4 0 0 1 -4,-4 4,4 0 0 1 4,-4 4,4 0 0 1 4,4 z m 3.281153,-5.290067 4.854102,-3.526712 a 15,15 0 0 1 2.130593,4.181524 l -5.706339,1.854102 a 9,9 0 0 0 -1.278356,-2.508914 z m -4.5,-3.269442 1.854102,-5.706339 a 15,15 0 0 1 4.181524,2.130593 L 22.248276,9.497501 A 9,9 0 0 0 19.739362,8.219145 Z m -5.562306,0 -1.854102,-5.706339 a 15,15 0 0 1 4.635255,-0.734152 v 6 a 9,9 0 0 0 -2.781153,0.440491 z m -4.5,3.269442 L 4.822954,7.961875 A 15,15 0 0 1 8.14143,4.643399 l 3.526712,4.854102 a 9,9 0 0 0 -1.991086,1.991086 z m -1.718847,5.290067 h -6 A 15,15 0 0 1 2.692361,12.143399 L 8.3987,13.997501 a 9,9 0 0 0 -0.440491,2.781153 z m 1.718847,5.290067 -4.854102,3.526712 A 15,15 0 0 1 2.692361,21.413909 L 8.3987,19.559807 a 9,9 0 0 0 1.278356,2.508914 z m 4.5,3.269442 -1.854102,5.706339 A 15,15 0 0 1 8.14143,28.913909 l 3.526712,-4.854102 a 9,9 0 0 0 2.508914,1.278356 z m 5.562306,0 1.854102,5.706339 a 15,15 0 0 1 -4.635255,0.734152 v -6 a 9,9 0 0 0 2.781153,-0.440491 z m 4.5,-3.269442 4.854102,3.526712 a 15,15 0 0 1 -3.318476,3.318476 l -3.526712,-4.854102 a 9,9 0 0 0 1.991086,-1.991086 z m 1.718847,-5.290067 h 6 a 15,15 0 0 1 -0.734152,4.635255 l -5.706339,-1.854102 a 9,9 0 0 0 0.440491,-2.781153 z" />
</svg>
